<svg width="128" height="128" viewBox="0 0 128 128" fill="none" xmlns="http://www.w3.org/2000/svg">
<rect width="128" height="128" rx="64" fill="white"/>
<path d="M49.5 41C49.5 45.1421 46.1421 48.5 42 48.5C37.8579 48.5 34.5 45.1421 34.5 41C34.5 36.8579 37.8579 33.5 42 33.5C46.1421 33.5 49.5 36.8579 49.5 41Z" stroke="#E75E02" stroke-width="5"/>
<path d="M36 89V101H92.5V89" stroke="#E75E02" stroke-width="6"/>
<path fill-rule="evenodd" clip-rule="evenodd" d="M65 38C62.7909 38 61 39.7909 61 42V44H61V76.7574L51.0295 66.7868C49.8579 65.6152 47.9584 65.6152 46.7868 66.7868C45.6152 67.9584 45.6152 69.8579 46.7868 71.0294L61.8787 86.1213C63.0503 87.2929 64.9498 87.2929 66.1213 86.1213L81.2132 71.0294C82.3848 69.8579 82.3848 67.9584 81.2132 66.7868C80.0417 65.6152 78.1422 65.6152 76.9706 66.7868L67 76.7574V44H93C94.6568 44 96 42.6569 96 41C96 39.3431 94.6568 38 93 38H65Z" fill="#E75E02"/>
</svg>
